<svg width="92" height="92" viewBox="0 0 92 92" fill="none" xmlns="http://www.w3.org/2000/svg">
<path d="M92 44.8079C92 38.7129 84.3678 32.936 72.6647 29.3557C75.3672 17.4302 74.1673 7.93887 68.8773 4.89904C67.5955 4.18114 66.1448 3.81977 64.676 3.85254V8.03087C65.5385 8.03087 66.2323 8.20337 66.815 8.52154C69.3642 9.98587 70.472 15.5519 69.6095 22.7164C69.4025 24.4797 69.0652 26.335 68.6512 28.2287C64.7321 27.2843 60.7545 26.6018 56.7448 26.1855C54.3561 22.89 51.75 19.7576 48.944 16.8092C55.0582 11.1282 60.7967 8.01554 64.699 8.01554V3.83337C59.5393 3.83337 52.7888 7.50954 45.9617 13.8844C39.1383 7.55171 32.384 3.91004 27.2282 3.91004V8.08837C31.1113 8.08837 36.869 11.1857 42.9832 16.8284C40.3573 19.5884 37.7315 22.7164 35.236 26.1855C31.218 26.5971 27.2333 27.2862 23.3105 28.2479C22.8773 26.3734 22.5592 24.5564 22.333 22.8122C21.4513 15.6439 22.54 10.0779 25.0738 8.59821C25.6335 8.26087 26.3657 8.10754 27.2282 8.10754V3.92921C25.6565 3.92921 24.2267 4.26654 22.9923 4.97571C17.7215 8.01554 16.5408 17.4839 19.2587 29.3749C7.59383 32.9782 0 38.732 0 44.8079C0 50.9029 7.63217 56.6797 19.3353 60.2562C16.6328 72.1855 17.8327 81.6769 23.1227 84.7129C24.3417 85.4259 25.7677 85.7632 27.3393 85.7632C32.499 85.7632 39.2495 82.087 46.0767 75.7122C52.9 82.0487 59.6505 85.6865 64.8102 85.6865C66.2902 85.7178 67.752 85.3553 69.046 84.6362C74.3168 81.6002 75.4975 72.1319 72.7797 60.2409C84.4062 56.6605 92 50.8837 92 44.8079ZM67.5817 32.2997C66.8533 34.8062 66.009 37.2775 65.0517 39.7057C63.4845 36.6573 61.7636 33.6903 59.8958 30.8162C62.56 31.211 65.1283 31.6979 67.5855 32.2997H67.5817ZM58.995 52.2714C57.5345 54.8014 56.0318 57.2049 54.4755 59.4359C48.8491 59.9318 43.1903 59.9382 37.5628 59.455C34.335 54.8442 31.5121 49.9628 29.1257 44.8654C31.5084 39.7559 34.3193 34.8573 37.5283 30.222C43.1533 29.7251 48.8108 29.7174 54.4372 30.199C55.9935 32.43 57.5153 34.8144 58.9758 37.329C60.4018 39.7824 61.6975 42.274 62.8782 44.7887C61.6844 47.3339 60.389 49.8301 58.995 52.2714ZM65.0517 49.8334C66.0637 52.3442 66.93 54.8589 67.6392 57.2969C65.1858 57.8987 62.5945 58.4047 59.915 58.7957C61.7751 55.8955 63.4894 52.9043 65.0517 49.8334ZM46.0383 69.8434C44.2942 68.0417 42.55 66.0369 40.825 63.8404C42.5117 63.917 44.2367 63.9745 45.9808 63.9745C47.7442 63.9745 49.4883 63.9362 51.1942 63.8404C49.5075 66.0369 47.7633 68.0417 46.0383 69.8434ZM32.085 58.7957C29.5004 58.4212 26.9344 57.9275 24.3953 57.316C25.0892 54.8972 25.9517 52.4017 26.9253 49.91C27.6958 51.405 28.5047 52.9077 29.3863 54.4104C30.268 55.9092 31.165 57.3735 32.085 58.7957ZM45.9425 19.7724C47.6867 21.574 49.4308 23.5789 51.1558 25.7754C49.4692 25.6987 47.7442 25.6412 46 25.6412C44.2367 25.6412 42.4925 25.6795 40.7867 25.7754C42.4733 23.5789 44.2175 21.574 45.9425 19.7724ZM32.0658 30.82C30.2062 33.7139 28.4918 36.6987 26.9292 39.7632C25.9448 37.3193 25.0813 34.8285 24.3417 32.2997C26.795 31.717 29.3863 31.211 32.0658 30.82ZM15.0957 54.2954C8.45633 51.4664 4.163 47.7519 4.163 44.8079C4.163 41.8639 8.45633 38.1302 15.0957 35.3204C16.7057 34.6265 18.469 34.0055 20.2898 33.4267C21.3593 37.099 22.7662 40.9247 24.5065 44.8462C22.8634 48.5346 21.4738 52.3307 20.3473 56.2082C18.5666 55.6568 16.8139 55.0184 15.0957 54.2954ZM25.185 81.0904C22.6358 79.6337 21.528 74.06 22.3905 66.8994C22.5975 65.136 22.9348 63.2769 23.3488 61.3832C27.0212 62.284 31.0347 62.9779 35.2552 63.4302C37.644 66.7257 40.2501 69.8581 43.056 72.8065C36.9418 78.4875 31.2033 81.6002 27.301 81.6002C26.5648 81.6082 25.8379 81.4344 25.185 81.0942V81.0904ZM69.667 66.8035C70.5487 73.968 69.46 79.5379 66.9262 81.0175C66.3665 81.3549 65.6343 81.5044 64.7718 81.5044C60.8887 81.5044 55.131 78.4109 49.0168 72.7644C51.6427 70.012 54.2685 66.8802 56.764 63.411C60.782 62.9995 64.7667 62.3104 68.6895 61.3487C69.1227 63.2424 69.4562 65.0594 69.667 66.8035ZM76.8852 54.2954C75.2752 54.9892 73.5118 55.6102 71.691 56.189C70.5447 52.2918 69.136 48.4765 67.4743 44.7695C69.1993 40.871 70.5832 37.0645 71.6335 33.4075C73.4927 33.9864 75.2522 34.6265 76.9043 35.3204C83.5437 38.1494 87.837 41.8639 87.837 44.8079C87.8178 47.7519 83.5245 51.4855 76.8852 54.2954Z" fill="#6700EE"/>
<path d="M45.9808 53.3792C48.2541 53.3792 50.4342 52.4762 52.0417 50.8688C53.6491 49.2613 54.5522 47.0812 54.5522 44.8079C54.5522 42.5346 53.6491 40.3545 52.0417 38.7471C50.4342 37.1396 48.2541 36.2366 45.9808 36.2366C43.7076 36.2366 41.5274 37.1396 39.92 38.7471C38.3125 40.3545 37.4095 42.5346 37.4095 44.8079C37.4095 47.0812 38.3125 49.2613 39.92 50.8688C41.5274 52.4762 43.7076 53.3792 45.9808 53.3792Z" fill="#6700EE"/>
</svg>
