<svg width="26" height="26" viewBox="0 0 26 26" fill="none" xmlns="http://www.w3.org/2000/svg">
<path d="M23.3888 5.17298L20.7726 0.8125H13.4515L2.11112 13.3679C2.00277 13.4879 1.91937 13.6282 1.86577 13.7807C1.81218 13.9333 1.78946 14.0949 1.79894 14.2563C1.80843 14.4177 1.84993 14.5756 1.92102 14.7207C1.99211 14.8659 2.09138 14.9955 2.21304 15.102C2.67642 15.5074 3.21661 15.8155 3.80148 16.0079C4.38636 16.2003 5.00395 16.2731 5.61754 16.222C6.23112 16.1709 6.82814 15.9968 7.3731 15.7103C7.91805 15.4237 8.3998 15.0305 8.78967 14.5539L9.72877 13.4062H10.9687V22.5469C10.9687 23.2472 11.247 23.9189 11.7422 24.4141C12.2374 24.9093 12.909 25.1875 13.6094 25.1875C14.3097 25.1875 14.9814 24.9093 15.4766 24.4141C15.9718 23.9189 16.25 23.2472 16.25 22.5469V16.8676L22.6699 15.0842C22.9263 15.0124 23.1522 14.8588 23.3133 14.6469C23.4744 14.4349 23.5619 14.1762 23.5625 13.9099V5.80018C23.5625 5.57924 23.5025 5.36244 23.3888 5.17298ZM21.9375 13.6011L14.625 15.6324V22.5469C14.625 22.8162 14.518 23.0746 14.3275 23.265C14.1371 23.4555 13.8787 23.5625 13.6094 23.5625C13.34 23.5625 13.0817 23.4555 12.8912 23.265C12.7008 23.0746 12.5937 22.8162 12.5937 22.5469V11.7812H8.95872L7.53177 13.5251C7.0681 14.0915 6.41142 14.4666 5.68795 14.5783C4.96449 14.6899 4.22528 14.5302 3.61242 14.1299L14.1735 2.4375H19.8524L21.9375 5.91261V13.6011Z" fill="#FFD233"/>
</svg>
