<svg width="111" height="111" viewBox="0 0 111 111" fill="none" xmlns="http://www.w3.org/2000/svg">
<path d="M22.2 88.8V77.7001H11.1V88.8H5.55V61.05H11.1V72.15H22.2V61.05H27.75V88.8H22.2Z" fill="#6700EE"/>
<path d="M38.85 88.8V66.6H31.08V61.05H51.615V66.6H44.4V88.8H38.85Z" fill="#6700EE"/>
<path d="M55.5 88.8V61.05H61.05L68.82 79.92H69.375L77.7 61.05H83.25V88.8H77.7V71.595H77.145L71.04 85.47H67.71L61.605 71.595H61.05V88.8H55.5Z" fill="#6700EE"/>
<path d="M105.45 88.8H88.8V61.05H94.35V83.25H105.45V88.8Z" fill="#6700EE"/>
<path d="M52.17 23.31L39.405 36.075L52.17 48.84L48.84 55.5L29.415 36.075L48.84 16.65L52.17 23.31ZM58.83 48.84L71.595 36.075L58.83 23.31L62.16 16.65L81.585 36.075L62.16 55.5L58.83 48.84Z" fill="#6700EE"/>
</svg>
