<svg width="106" height="106" viewBox="0 0 106 106" fill="none" xmlns="http://www.w3.org/2000/svg">
<path d="M63.9445 65.7332C60.6239 66.057 57.2789 65.4483 54.2853 63.9754C53.6068 63.433 53.0467 62.7574 52.6395 61.9902C52.2323 61.2229 51.9868 60.3804 51.9179 59.5145C51.9168 59.385 51.89 59.257 51.8391 59.1379C51.7882 59.0188 51.7142 58.911 51.6214 58.8206C51.5286 58.7303 51.4188 58.6592 51.2984 58.6115C51.1779 58.5639 51.0493 58.5405 50.9198 58.5429C49.5212 58.5287 48.1225 58.5287 46.7239 58.5429C46.48 58.518 46.2361 58.5904 46.0451 58.7441C45.8542 58.8979 45.7315 59.1208 45.7037 59.3644C45.6244 60.883 45.8814 62.4004 46.4563 63.8082C47.0312 65.2161 47.9098 66.4796 49.0294 67.5087C51.8562 69.7162 55.2891 71.009 58.8698 71.2143C62.6007 71.6463 66.3765 71.4853 70.0572 70.7373C72.883 70.2103 75.4738 68.8146 77.4684 66.7446C78.5712 65.3851 79.3104 63.7675 79.6163 62.0439C79.9222 60.3202 79.785 58.5471 79.2174 56.891C78.7413 55.7236 78.0042 54.6807 77.0625 53.8423C76.1208 53.004 74.9996 52.3925 73.7848 52.0548C68.1315 50.0673 62.0188 50.2219 56.2507 48.7114C55.2481 48.4022 54.0247 48.0577 53.5786 46.9977C53.3206 46.2517 53.3029 45.4437 53.5279 44.6872C53.7529 43.9306 54.2093 43.2636 54.8329 42.7798C56.6452 41.7438 58.709 41.2301 60.7954 41.2958C63.6229 41.0308 66.4729 41.4394 69.112 42.4883C69.9054 42.9547 70.5877 43.5882 71.1117 44.3448C71.6356 45.1014 71.9887 45.9629 72.1463 46.8696C72.1535 47.1378 72.2609 47.3935 72.4473 47.5864C72.6336 47.7794 72.8855 47.8955 73.1533 47.9119C74.5401 47.9384 75.9269 47.9164 77.3182 47.9208C77.5589 47.9491 77.8017 47.8896 78.0021 47.7533C78.2025 47.617 78.347 47.413 78.4091 47.1788C78.4212 45.306 77.9438 43.4626 77.0242 41.8312C76.1047 40.1997 74.7749 38.8367 73.1665 37.8773C68.7283 35.8283 63.8018 35.0735 58.9537 35.6999C55.4014 35.8462 52.0077 37.2109 49.343 39.5644C48.1204 40.8833 47.2925 42.5189 46.9536 44.2851C46.6147 46.0513 46.7785 47.8772 47.4262 49.5549C47.9306 50.6791 48.6727 51.6806 49.6014 52.4903C50.5301 53.3001 51.6233 53.8989 52.8057 54.2454C58.4458 56.2815 64.6247 55.6279 70.3134 57.4299C71.4263 57.8053 72.716 58.3839 73.0561 59.6161C73.2387 60.3561 73.2247 61.1309 73.0156 61.8638C72.8064 62.5967 72.4093 63.2622 71.8636 63.7943C69.4969 65.2653 66.7231 65.9445 63.9445 65.7332ZM89.6451 28.4344C78.6388 22.2099 67.628 15.9898 56.6128 9.77403C55.5081 9.15627 54.2635 8.83191 52.9978 8.83191C51.7321 8.83191 50.4875 9.15627 49.3828 9.77403L16.4742 28.3594C15.4066 28.9402 14.5139 29.7962 13.8887 30.8384C13.2635 31.8806 12.9286 33.0712 12.9188 34.2865V71.7178C12.9368 72.9557 13.2896 74.1656 13.9397 75.2192C14.5897 76.2729 15.5128 77.1309 16.6111 77.7024C19.7602 79.416 22.8209 81.3064 26.0318 82.9096C27.8837 83.8992 29.9403 84.4442 32.0392 84.5017C34.138 84.5592 36.2215 84.1276 38.1247 83.2409C39.5491 82.349 40.7083 81.0914 41.4812 79.5991C42.2542 78.1068 42.6126 76.4345 42.5193 74.7564C42.5413 62.403 42.5193 50.0496 42.5281 37.7006C42.55 37.5654 42.5431 37.4271 42.5079 37.2947C42.4726 37.1624 42.4097 37.0389 42.3234 36.9326C42.237 36.8262 42.1292 36.7394 42.0069 36.6776C41.8846 36.6159 41.7507 36.5807 41.6138 36.5744C40.2109 36.5583 38.8077 36.5583 37.4048 36.5744C37.2753 36.5632 37.145 36.5794 37.0222 36.6218C36.8994 36.6642 36.7869 36.732 36.6919 36.8207C36.597 36.9094 36.5218 37.017 36.4711 37.1366C36.4204 37.2563 36.3954 37.3852 36.3978 37.5151C36.3801 49.789 36.4022 62.063 36.3889 74.3413C36.3915 75.1886 36.1347 76.0164 35.6531 76.7135C35.1715 77.4107 34.4881 77.9437 33.6948 78.2412C32.7817 78.5112 31.8219 78.5855 30.8782 78.4591C29.9344 78.3328 29.028 78.0087 28.2181 77.508L19.4643 72.5614C19.2707 72.4701 19.1098 72.3216 19.0031 72.136C18.8965 71.9505 18.8494 71.7367 18.868 71.5234V34.4809C18.848 34.2408 18.9042 34.0006 19.0287 33.7944C19.1532 33.5882 19.3397 33.4266 19.5614 33.3325C30.4942 27.1728 41.4254 21.0086 52.3552 14.8399C52.545 14.7097 52.7698 14.6399 53 14.6399C53.2302 14.6399 53.455 14.7097 53.6448 14.8399L86.443 33.3281C86.6627 33.4245 86.8471 33.5868 86.9705 33.7925C87.094 33.9982 87.1504 34.2372 87.132 34.4764V71.5234C87.1507 71.7379 87.1042 71.9529 86.9986 72.1405C86.893 72.3281 86.7332 72.4794 86.5402 72.5746C75.7753 78.6637 65.003 84.744 54.2234 90.8154C53.7111 91.0981 53.1016 91.5619 52.5009 91.213C49.6743 89.6141 46.8918 87.9534 44.0739 86.3414C43.93 86.231 43.7565 86.1661 43.5755 86.1551C43.3945 86.1441 43.2143 86.1874 43.0581 86.2795C41.8191 87.0061 40.515 87.6154 39.1626 88.0992C38.5531 88.3465 37.8023 88.4172 37.3827 88.9825C37.9189 89.564 38.5681 90.0299 39.2907 90.3517L49.1663 96.0624C50.2555 96.7461 51.508 97.1255 52.7934 97.1612C54.0789 97.1969 55.3504 96.8877 56.4759 96.2656C67.4469 90.0823 78.4179 83.8931 89.3889 77.6979C90.4856 77.1257 91.4075 76.2681 92.0574 75.2156C92.7073 74.163 93.061 72.9546 93.0813 71.7178V34.2865C93.071 33.0956 92.7482 31.9283 92.1452 30.9013C91.5422 29.8743 90.6801 29.0237 89.6451 28.4344Z" fill="#6700EE"/>
</svg>
